<?xml version="1.0" encoding="UTF-8" standalone="no"?>
<!DOCTYPE svg PUBLIC "-//W3C//DTD SVG 1.1//EN" "http://www.w3.org/Graphics/SVG/1.1/DTD/svg11.dtd">
<svg width="100%" height="100%" viewBox="0 0 3840 2160" version="1.1" xmlns="http://www.w3.org/2000/svg" xmlns:xlink="http://www.w3.org/1999/xlink" xml:space="preserve" xmlns:serif="http://www.serif.com/" style="fill-rule:evenodd;clip-rule:evenodd;stroke-linejoin:round;stroke-miterlimit:2;">
    <rect x="-658.55" y="-156.042" width="4728.55" height="1347.64" style="fill:rgb(40,22,92);"/>
    <g id="v" transform="matrix(1,0,0,1,85.1138,54.8511)">
        <circle cx="150.031" cy="240.092" r="34.991" style="fill:rgb(51,28,116);"/>
    </g>
    <g id="v1" serif:id="v" transform="matrix(1,0,0,1,1958.06,110.264)">
        <circle cx="150.031" cy="240.092" r="34.991" style="fill:rgb(51,28,116);"/>
    </g>
    <circle cx="405.373" cy="202.264" r="12.294" style="fill:rgb(51,28,116);"/>
    <g transform="matrix(1,0,0,1,1872.95,55.4126)">
        <circle cx="405.373" cy="202.264" r="12.294" style="fill:rgb(51,28,116);"/>
    </g>
    <circle cx="420.977" cy="499.689" r="44.921" style="fill:rgb(51,28,116);"/>
    <g transform="matrix(1,0,0,1,1872.95,55.4126)">
        <circle cx="420.977" cy="499.689" r="44.921" style="fill:rgb(51,28,116);"/>
    </g>
    <circle cx="153.814" cy="654.313" r="25.534" style="fill:rgb(51,28,116);"/>
    <g transform="matrix(1,0,0,1,1872.95,55.4126)">
        <circle cx="153.814" cy="654.313" r="25.534" style="fill:rgb(51,28,116);"/>
    </g>
    <circle cx="719.348" cy="300.617" r="21.751" style="fill:rgb(51,28,116);"/>
    <g transform="matrix(1,0,0,1,1872.95,55.4126)">
        <circle cx="719.348" cy="300.617" r="21.751" style="fill:rgb(51,28,116);"/>
    </g>
    <g transform="matrix(1,0,0,1,11.3485,-73.7653)">
        <circle cx="835.198" cy="219.759" r="24.116" style="fill:rgb(51,28,116);"/>
    </g>
    <g transform="matrix(1,0,0,1,1884.3,-18.3527)">
        <circle cx="835.198" cy="219.759" r="24.116" style="fill:rgb(51,28,116);"/>
    </g>
    <circle cx="821.485" cy="590.004" r="21.751" style="fill:rgb(51,28,116);"/>
    <g transform="matrix(1,0,0,1,1872.95,55.4126)">
        <circle cx="821.485" cy="590.004" r="21.751" style="fill:rgb(51,28,116);"/>
    </g>
    <g transform="matrix(0.690476,0,0,0.690476,297.299,112.66)">
        <circle cx="980.364" cy="383.84" r="19.86" style="fill:rgb(51,28,116);"/>
    </g>
    <g transform="matrix(0.690476,0,0,0.690476,2170.25,168.073)">
        <circle cx="980.364" cy="383.84" r="19.86" style="fill:rgb(51,28,116);"/>
    </g>
    <circle cx="1112.76" cy="637.29" r="27.426" style="fill:rgb(51,28,116);"/>
    <g transform="matrix(1,0,0,1,1872.95,55.4126)">
        <circle cx="1112.76" cy="637.29" r="27.426" style="fill:rgb(51,28,116);"/>
    </g>
    <circle cx="1210.64" cy="542.246" r="11.821" style="fill:rgb(51,28,116);"/>
    <g transform="matrix(1,0,0,1,1872.95,55.4126)">
        <circle cx="1210.64" cy="542.246" r="11.821" style="fill:rgb(51,28,116);"/>
    </g>
    <circle cx="1320.82" cy="336.554" r="25.534" style="fill:rgb(51,28,116);"/>
    <g transform="matrix(1,0,0,1,1872.95,55.4126)">
        <circle cx="1320.82" cy="336.554" r="25.534" style="fill:rgb(51,28,116);"/>
    </g>
    <circle cx="1503.34" cy="723.349" r="35.937" style="fill:rgb(51,28,116);"/>
    <g transform="matrix(1,0,0,1,1872.95,55.4126)">
        <circle cx="1503.34" cy="723.349" r="35.937" style="fill:rgb(51,28,116);"/>
    </g>
    <circle cx="1436.67" cy="586.694" r="20.333" style="fill:rgb(51,28,116);"/>
    <g transform="matrix(1,0,0,1,1872.95,55.4126)">
        <circle cx="1436.67" cy="586.694" r="20.333" style="fill:rgb(51,28,116);"/>
    </g>
    <circle cx="1596.97" cy="130.39" r="19.86" style="fill:rgb(51,28,116);"/>
    <g transform="matrix(1,0,0,1,1872.95,55.4126)">
        <circle cx="1596.97" cy="130.39" r="19.86" style="fill:rgb(51,28,116);"/>
    </g>
    <circle cx="1687.76" cy="298.726" r="10.403" style="fill:rgb(51,28,116);"/>
    <g transform="matrix(1,0,0,1,1872.95,55.4126)">
        <circle cx="1687.76" cy="298.726" r="10.403" style="fill:rgb(51,28,116);"/>
    </g>
    <circle cx="1741.66" cy="517.185" r="24.588" style="fill:rgb(51,28,116);"/>
    <g transform="matrix(1,0,0,1,1872.95,55.4126)">
        <circle cx="1741.66" cy="517.185" r="24.588" style="fill:rgb(51,28,116);"/>
    </g>
    <circle cx="1891.08" cy="184.295" r="34.046" style="fill:rgb(51,28,116);"/>
    <g transform="matrix(1,0,0,1,1872.95,55.4126)">
        <circle cx="1891.08" cy="184.295" r="34.046" style="fill:rgb(51,28,116);"/>
    </g>
    <circle cx="1099.52" cy="122.824" r="42.557" style="fill:rgb(51,28,116);"/>
    <g transform="matrix(1,0,0,1,1872.95,55.4126)">
        <circle cx="1099.52" cy="122.824" r="42.557" style="fill:rgb(51,28,116);"/>
    </g>
    <path d="M3963.07,866.506L4327.11,866.506L4327.11,2486.03L-493.214,2486.03L-493.214,866.506L-205.383,866.506C-224.765,912.636 -237.445,963.263 -137.257,996.659L-104.01,1007.74C-62.537,1021.57 -64.631,1027.47 -67.068,1029.91C-68.143,1030.98 -68.703,1031.38 -68.786,1031.7C-28.276,994.307 120.103,938.784 132.418,926.47C154.428,904.459 429.66,859.313 620.049,922.776C621.195,923.158 622.574,923.578 624.17,924.033C670.651,937.285 907.256,982.232 952.225,974.955C970.291,973.788 988.339,969.955 1008.52,964.374C1032.96,958.506 1066.71,948.748 1122.46,930.164C1157.53,920.433 1421.68,830.421 1576.84,907.999C1590.82,914.988 1823.21,1008.12 1935.18,970.8C2052.09,931.828 2177.84,793.096 2577.96,926.47C2620.55,940.667 2724.9,974.494 2792.22,974.494C2888.69,974.494 3022.41,910.08 3072.98,893.222C3213.43,846.407 3403.74,877.587 3457.18,904.305C3555.86,953.644 3782.93,995.99 3852.45,926.47C3868.76,910.166 3959.66,868.213 3963.07,866.506Z" style="fill:rgb(31,17,71);"/>
</svg>
